<?xml version="1.0" encoding="UTF-8"?>
<svg width="50px" height="28px" viewBox="0 0 50 28" version="1.1" xmlns="http://www.w3.org/2000/svg" xmlns:xlink="http://www.w3.org/1999/xlink">
    <!-- Generator: Sketch 64 (93537) - https://sketch.com -->
    <title>AndroidLogo</title>
    <desc>Created with Sketch.</desc>
    <g id="Page-1" stroke="none" stroke-width="1" fill="none" fill-rule="evenodd">
        <g id="AndroidLogo" fill="#FFFFFF" fill-rule="nonzero">
            <path d="M36.7629203,8.28083326 L40.5228741,1.34110703 C40.770569,0.882082811 40.6815102,0.529001533 40.2586661,0.282048732 C39.7988997,0.0699773185 39.446004,0.176004243 39.1996078,0.600063083 L35.3849199,7.5921114 C32.0299984,6.10891028 28.4819305,5.36730972 24.737933,5.36730972 C20.9948633,5.36730972 17.4454966,6.10891028 14.0903895,7.5921114 L10.2764438,0.600248622 C10.0300476,0.176004243 9.67640973,0.0701628578 9.21738552,0.282234272 C8.79342823,0.529187073 8.70566814,0.88226835 8.95280648,1.34129256 L12.7138735,8.28083326 C8.89937116,10.2228731 5.86320615,12.9334166 3.60240984,16.4119073 C1.3423557,19.8905835 0.212050314,23.6959945 0.212050314,27.8272124 L49.2120503,27.8272124 C49.2120503,23.6959945 48.0819305,19.890398 45.8216908,16.4119073 C43.5605234,12.9334166 40.5427268,10.2226875 36.7629203,8.28083326 Z M15.0175294,18.3715733 C14.611755,18.7779044 14.1263842,18.9808844 13.5612315,18.9808844 C12.9960788,18.9808844 12.5196139,18.7780899 12.1307235,18.3715733 C11.7427609,17.9657989 11.5481301,17.480057 11.5481301,16.9150899 C11.5481301,16.3499372 11.7427609,15.8641953 12.1307235,15.4578643 C12.5190573,15.0515332 12.9962643,14.8489243 13.5612315,14.8489243 C14.125642,14.8489243 14.6111983,15.0513477 15.0175294,15.4578643 C15.4238605,15.8641953 15.6268404,16.3499372 15.6268404,16.9150899 C15.6268404,17.4802426 15.4238605,17.9652423 15.0175294,18.3715733 Z M37.3462558,18.3715733 C36.9569944,18.7779044 36.4801584,18.9808844 35.9151912,18.9808844 C35.3500385,18.9808844 34.8655954,18.7780899 34.4590788,18.3715733 C34.0527478,17.9657989 33.8503244,17.480057 33.8503244,16.9150899 C33.8503244,16.3499372 34.0527478,15.8641953 34.4590788,15.4578643 C34.8654099,15.0515332 35.3500385,14.8489243 35.9151912,14.8489243 C36.4801584,14.8489243 36.9569944,15.0513477 37.3462558,15.4578643 C37.7336619,15.8641953 37.9286637,16.3499372 37.9286637,16.9150899 C37.9286637,17.4802426 37.7342185,17.9652423 37.3462558,18.3715733 Z" id="Shape"></path>
        </g>
    </g>
</svg>