<?xml version="1.0" encoding="UTF-8"?>
<svg width="44px" height="49px" viewBox="0 0 44 49" version="1.1" xmlns="http://www.w3.org/2000/svg" xmlns:xlink="http://www.w3.org/1999/xlink">
    <!-- Generator: Sketch 64 (93537) - https://sketch.com -->
    <title>HtmlLogo</title>
    <desc>Created with Sketch.</desc>
    <g id="Page-1" stroke="none" stroke-width="1" fill="none" fill-rule="evenodd">
        <g id="HtmlLogo" fill-rule="nonzero">
            <polyline id="Path" fill="#FFFFFF" points="3.98644068 44.0169492 0.0711864407 0.0711864407 43.1152542 0.0711864407 39.2 43.9932203 21.5576271 48.8813559"></polyline>
            <polyline id="Path" fill="#FFFFFF" points="21.5932203 45.1440678 21.5932203 3.6779661 39.1881356 3.6779661 35.8305085 41.1694915"></polyline>
            <path d="M8.06779661,9.05254237 L21.5932203,9.05254237 L21.5932203,14.4389831 L13.9762712,14.4389831 L14.4745763,19.9559322 L21.5932203,19.9559322 L21.5932203,25.3305085 L9.53898305,25.3305085 M9.77627119,28.0355932 L15.1864407,28.0355932 L15.5661017,32.3423729 L21.5932203,33.9559322 L21.5932203,39.579661 L10.5355932,36.4949153" id="Shape" fill="#000000"></path>
            <path d="M35.0711864,9.05254237 L21.5694915,9.05254237 L21.5694915,14.4389831 L34.5728814,14.4389831 M34.0864407,19.9559322 L21.5694915,19.9559322 L21.5694915,25.3423729 L28.2135593,25.3423729 L27.5847458,32.3423729 L21.5694915,33.9559322 L21.5694915,39.5559322 L32.6033898,36.4949153" id="Shape" fill="#121212"></path>
        </g>
    </g>
</svg>