<?xml version="1.0" encoding="UTF-8"?>
<svg width="49px" height="49px" viewBox="0 0 49 49" version="1.1" xmlns="http://www.w3.org/2000/svg" xmlns:xlink="http://www.w3.org/1999/xlink">
    <!-- Generator: Sketch 64 (93537) - https://sketch.com -->
    <title>invision</title>
    <desc>Created with Sketch.</desc>
    <g id="Page-1" stroke="none" stroke-width="1" fill="none" fill-rule="evenodd">
        <g id="invision" fill-rule="nonzero">
            <path d="M44.5580352,0 L4.44196484,0 C1.98871094,0 0,1.98871094 0,4.44196484 L0,44.5580352 C0,47.0112891 1.98871094,49 4.44196484,49 L44.5580352,49 C47.0112891,49 49,47.0112891 49,44.5580352 L49,4.44196484 C49,1.98871094 47.0112891,0 44.5580352,0" id="Path" fill="#FFFFFF"></path>
            <path d="M16.3757617,15.4168164 C18.0046289,15.4168164 19.3691641,14.1401367 19.3691641,12.4668633 C19.3691641,10.7947383 18.0046289,9.51825 16.3757617,9.51825 C14.7468945,9.51825 13.3827422,10.7947383 13.3827422,12.4668633 C13.3827422,14.1399453 14.7468945,15.4168164 16.3757617,15.4168164 M10.1692227,31.2116602 C9.99332031,31.9600586 9.90508203,32.7681758 9.90508203,33.4273789 C9.90508203,36.0249531 11.3136406,37.749332 14.307043,37.749332 C16.789582,37.749332 18.8022188,36.2751211 20.2513555,33.8946016 L19.3664844,37.4457617 L24.2961523,37.4457617 L27.1136523,26.1453281 C27.8180273,23.2841875 29.1825625,21.7990664 31.2516641,21.7990664 C32.8803398,21.7990664 33.8926875,22.8119883 33.8926875,24.4841133 C33.8926875,24.9685625 33.8486641,25.4962695 33.6725703,26.0687656 L32.2197969,31.262957 C31.9996797,32.0113555 31.9120156,32.7601367 31.9120156,33.4639375 C31.9120156,35.9298242 33.3642148,37.7334453 36.4016406,37.7334453 C38.998832,37.7334453 41.0675508,36.0615117 42.2121602,32.0555703 L40.2755117,31.3079375 C39.3069961,33.9916445 38.4705508,34.4768594 37.8101992,34.4768594 C37.1498477,34.4768594 36.7976602,34.0370078 36.7976602,33.1571133 C36.7976602,32.7609023 36.8860898,32.3212422 37.0177773,31.7918125 L38.4267188,26.7314141 C38.7787148,25.5431641 38.9109766,24.4894727 38.9109766,23.5213398 C38.9109766,19.735707 36.6217578,17.7600117 33.8486641,17.7600117 C31.2516641,17.7600117 28.6102578,20.1026328 27.2899375,22.5681367 L28.2580703,18.1428242 L20.7312109,18.1428242 L19.6746484,22.0406211 L23.196332,22.0406211 L21.0276992,30.7228086 C19.3247578,34.5084414 16.1966055,34.5698828 15.8040313,34.4820273 C15.159375,34.3365586 14.7470859,34.09175 14.7470859,33.2541563 C14.7470859,32.7708555 14.8351328,32.076625 15.05525,31.2396055 L18.3570078,18.1428242 L9.99332031,18.1428242 L8.93675781,22.0406211 L12.4140352,22.0406211 L10.1694141,31.2116602" id="Shape" fill="#000000"></path>
        </g>
    </g>
</svg>