<?xml version="1.0" encoding="UTF-8"?>
<svg width="49px" height="49px" viewBox="0 0 49 49" version="1.1" xmlns="http://www.w3.org/2000/svg" xmlns:xlink="http://www.w3.org/1999/xlink">
    <!-- Generator: Sketch 64 (93537) - https://sketch.com -->
    <title>JsLogo</title>
    <desc>Created with Sketch.</desc>
    <g id="Page-1" stroke="none" stroke-width="1" fill="none" fill-rule="evenodd">
        <g id="JsLogo" fill="#FFFFFF" fill-rule="nonzero">
            <path d="M45.8919277,0 L3.1126305,0 C1.39453183,0 0,1.39453183 0,3.1126305 L0,45.8873695 C0,47.6054693 1.39453183,49 3.1126305,49 L45.8873695,49 C47.6054693,49 49,47.6054693 49,45.8919277 L49,3.1126305 C49,1.39453183 47.6054693,0 45.8919277,0 Z M26.8333333,37.5475263 C26.8333333,42.209636 24.0989583,44.3333333 20.1067708,44.3333333 C16.4973958,44.3333333 13.895182,41.9134112 12.8333333,39.6666667 L16.5019528,37.4472653 C17.2083333,38.7005208 18.2838542,39.6666667 19.8333333,39.6666667 C21.3144528,39.6666667 22.1666667,39.0878903 22.1666667,36.8365888 L22.1666667,22.1666667 L26.8333333,22.1666667 L26.8333333,37.5475263 Z M36.9550778,44.3333333 C32.8216152,44.3333333 30.4746097,42.2506513 29.1666667,39.6666667 L32.6666667,37.3333333 C33.6191403,38.8919277 34.6582028,40.3821612 36.854818,40.3821612 C38.7005208,40.3821612 39.6666667,39.4615888 39.6666667,38.1855472 C39.6666667,36.6634112 38.6640625,36.1210943 36.636068,35.2324222 L35.5240888,34.7539068 C32.3111985,33.3867193 30.1738278,31.6731777 30.1738278,28.0455735 C30.1738278,24.709636 32.7213542,22.1666667 36.6953125,22.1666667 C39.5253903,22.1666667 41.557943,23.1510417 43.0253903,25.7304693 L39.5618487,27.9589847 C38.7962237,26.5872402 37.9759112,26.0494792 36.6953125,26.0494792 C35.3919277,26.0494792 34.567057,26.8789068 34.567057,27.9589847 C34.567057,29.2942708 35.3919277,29.8320318 37.301432,30.6614583 L38.4134112,31.1399737 C42.2005208,32.7578125 44.3333333,34.4121097 44.3333333,38.1308597 C44.3333333,42.1367193 41.1842445,44.3333333 36.9550778,44.3333333 Z" id="Shape"></path>
        </g>
    </g>
</svg>