<?xml version="1.0" encoding="UTF-8"?>
<svg width="49px" height="46px" viewBox="0 0 49 46" version="1.1" xmlns="http://www.w3.org/2000/svg" xmlns:xlink="http://www.w3.org/1999/xlink">
    <!-- Generator: Sketch 64 (93537) - https://sketch.com -->
    <title>SketchLogo</title>
    <desc>Created with Sketch.</desc>
    <g id="Page-1" stroke="none" stroke-width="1" fill="none" fill-rule="evenodd">
        <g id="SketchLogo" fill="#FFFFFF" fill-rule="nonzero">
            <path d="M36.1865,8.8046875 L28.609875,0 L35.3443125,1.2280625 L36.1865,8.8046875 Z M36.0731875,15.3125 L24.5,45.9375 L12.929875,15.3125 L36.0731875,15.3125 Z M13.9496875,12.25 L24.5,0 L35.0503125,12.25 L13.9496875,12.25 Z M11.7936875,10.0480625 L10.8688125,2.627625 L20.1420625,0 L11.7936875,10.0480625 Z M8.985375,12.25 L0,12.25 L8.0574375,4.8295625 L8.985375,12.25 Z M9.6560625,15.3125 L19.3151875,41.0650625 L0,15.3125 L9.6560625,15.3125 Z M39.340875,15.3125 L49,15.3125 L29.6848125,41.068125 L39.340875,15.3125 Z M39.65325,12.25 L38.7191875,3.8311875 L49,12.25 L39.65325,12.25 Z" id="Shape"></path>
        </g>
    </g>
</svg>